# xmcd
#
# Track frame offsets: 
#        150
#        43255
#        69453
#        99321
#        125171
#        142773
#        178625
#        203987
#        237994
#        282713
#        306392
#
# Disc length: 4414 seconds
#
# Revision: 0
# Processed by: cddbd v1.5.1PL0 Copyright (c) Steve Scherf et al.
# Submitted via: ExactAudioCopy v0.95a5
#
DISCID=aa113c0b
DTITLE=Eric Clapton and Otis Rush - Montreux  1986 Disc 3
DYEAR=1986
DGENRE=Blues
TTITLE0=I Dont Know What Love Is
TTITLE1=Let's Have A Magic Ball 
TTITLE2=Right Place, Wrong Time
TTITLE3=Mean Old World
TTITLE4=You Dont Love Me
TTITLE5=Crosscut Saw
TTITLE6=Double Trouble
TTITLE7=All Your Love
TTITLE8=Every Day I Have The Blues
TTITLE9=Caledonia
TTITLE10=My Baby Wrote Me A Letter
EXTD=
EXTT0=
EXTT1=
EXTT2=
EXTT3=
EXTT4=
EXTT5=
EXTT6=
EXTT7=
EXTT8=
EXTT9=
EXTT10=
PLAYORDER=
